<svg width="464" height="192" viewBox="0 0 464 192" fill="none" xmlns="http://www.w3.org/2000/svg">
<path d="M463.999 0H0V192H463.999V0Z" fill="#D32626"/>
<path d="M448 16H408.001L344 80V112L408.001 176H448L368 95.9999L448 16Z" fill="white"/>
<path d="M224 16L304 95.9999L256 144H195.052H192V125.464V71.9999V16H160V160L176 176H223.872L264 176L328 112L328 80L264 16H224Z" fill="white"/>
<path d="M71.6745 16H50.0455L16 50V176H48.0429V128H71.6173H100.799H112V95.9999H100.914H71.6745H48.0429L48.0429 63.9999L64.0643 48H71.7889H100.971H144V16H100.914H71.6745Z" fill="white"/>
</svg>
